<!--?xml version="1.0" standalone="no"?-->              <svg id="sw-js-blob-svg" viewBox="0 0 100 100" xmlns="http://www.w3.org/2000/svg" version="1.1">                    <defs>                         <linearGradient id="sw-gradient" x1="0" x2="1" y1="1" y2="0">                            <stop id="stop1" stop-color="rgba(58, 191, 248, 1)" offset="0%"></stop>                            <stop id="stop2" stop-color="rgba(255, 69.189, 220.608, 1)" offset="100%"></stop>                        </linearGradient>                    </defs>                <path fill="none" d="M9.6,-16.3C13.8,-14.2,19.6,-14.4,23.4,-12.1C27.3,-9.7,29.3,-4.9,30.9,1C32.6,6.8,33.9,13.6,30.7,16.9C27.4,20.3,19.5,20.2,13.6,19.3C7.8,18.3,3.9,16.5,-1.7,19.5C-7.3,22.4,-14.6,30.1,-20,30.8C-25.4,31.5,-28.9,25.1,-28.2,18.8C-27.5,12.5,-22.7,6.2,-21.5,0.7C-20.3,-4.8,-22.7,-9.7,-21.6,-13C-20.6,-16.3,-16.1,-18.2,-11.9,-20.3C-7.7,-22.3,-3.9,-24.7,-0.6,-23.7C2.7,-22.7,5.4,-18.4,9.6,-16.3Z" width="100%" height="100%" transform="translate(50 50)" stroke-width="1" style="transition: all 0.3s ease 0s;" stroke="url(#sw-gradient)"></path>              </svg>