<?xml version="1.0" ?><svg height="512px" id="Layer_1" style="enable-background:new 0 0 512 512;" version="1.1" viewBox="0 0 512 512" width="512px" xml:space="preserve" xmlns="http://www.w3.org/2000/svg" xmlns:cc="http://creativecommons.org/ns#" xmlns:dc="http://purl.org/dc/elements/1.1/" xmlns:inkscape="http://www.inkscape.org/namespaces/inkscape" xmlns:rdf="http://www.w3.org/1999/02/22-rdf-syntax-ns#" xmlns:sodipodi="http://sodipodi.sourceforge.net/DTD/sodipodi-0.dtd" xmlns:svg="http://www.w3.org/2000/svg"><defs id="defs19"/><g id="g2996" transform="translate(0.32800146,0.07000866)"><g id="g2987" style="fill:none;stroke:#017bbe;stroke-width:10.19920349000000000;stroke-miterlimit:4;stroke-opacity:1;stroke-dasharray:none" transform="matrix(0.98046874,0,0,0.98046874,4.9935963,4.9986352)"><path d="m 511.672,255.92999 c 0,141.3849 -114.61511,256 -256,256 -141.3849,0 -256.00000293,-114.6151 -256.00000293,-256 C -0.32800293,114.5451 114.2871,-0.07000732 255.672,-0.07000732 c 141.38489,0 256,114.61510732 256,255.99999732 z" id="path2989" style="fill:none;stroke:#017bbe;stroke-width:10.19920349000000000;stroke-miterlimit:4;stroke-opacity:1;stroke-dasharray:none"/></g><g id="g3941" transform="translate(564,78)"><g id="g3125"><g id="g3949" style="fill:#017bbe;fill-opacity:1" transform="translate(-566.41552,-78.837037)"><rect height="196.94901" id="rect3163" style="fill:#017bbe;fill-opacity:1" width="63.599083" x="112.57325" y="203.761"/><path d="m 144.78291,175.39295 c 17.44046,0 31.58994,-14.01309 31.58994,-31.28355 0,-17.29015 -14.14948,-31.28535 -31.58994,-31.28535 -17.45188,0 -31.59076,13.9952 -31.59076,31.28535 0,17.27046 14.13888,31.28355 31.59076,31.28355 z" id="path3165" style="fill:#017bbe;fill-opacity:1"/><path d="m 403.51679,291.89301 c -0.375,-10.338 1.962,-44.49 -22.773,-68.916 -12.969,-12.813 -19.519,-18.845 -51.092,-18.845 -25.367,0 -49.136,16.414 -58.562,29.468 v -28.851 h -64.78 v 195.017 h 64.78 c 0,0 0,-89.672 0,-111.17 0,-16.012 8.315,-33 30.943,-33 22.654,0 36.773,18.246 36.773,39.182 v 104.988 h 64.796 v -107.873 h -0.085 z" id="path3167" style="fill:#017bbe;fill-opacity:1"/></g></g><g id="Layer_1_1_-3"/></g></g><g id="Layer_1_1_"/></svg>